<svg width="125" height="46" viewBox="0 0 125 46" fill="none" xmlns="http://www.w3.org/2000/svg">
<path d="M13.323 35.393C12.3532 35.393 11.5366 35.1119 10.8731 34.5497C10.2096 33.9364 9.87788 33.1442 9.87788 32.1732V12.1647C9.87788 10.6315 9.1123 9.86484 7.58114 9.86484H3.8298C2.9111 9.86484 2.14552 9.58375 1.53306 9.02157C0.971631 8.40829 0.690918 7.64167 0.690918 6.72174C0.690918 5.80181 0.971631 5.06076 1.53306 4.49858C2.14552 3.88529 2.9111 3.57864 3.8298 3.57864H22.7396C23.7094 3.57864 24.4749 3.88529 25.0364 4.49858C25.6488 5.06076 25.955 5.80181 25.955 6.72174C25.955 7.64167 25.6488 8.40829 25.0364 9.02157C24.4749 9.58375 23.7094 9.86484 22.7396 9.86484H19.0648C17.5337 9.86484 16.7681 10.6315 16.7681 12.1647V32.1732C16.7681 33.1442 16.4363 33.9364 15.7728 34.5497C15.1604 35.1119 14.3438 35.393 13.323 35.393Z" fill="white"/>
<path d="M37.7617 35.393C34.3421 35.393 31.5605 34.3197 29.4169 32.1732C27.3243 29.9756 26.278 27.0625 26.278 23.4338C26.278 19.8052 27.2988 16.9432 29.3403 14.8478C31.4329 12.7013 34.1635 11.628 37.5321 11.628C39.9309 11.628 42.0235 12.4713 43.8098 14.1579C44.014 13.5446 44.3968 13.0335 44.9582 12.6246C45.5196 12.2158 46.1831 12.0114 46.9487 12.0114C47.9695 12.0114 48.7861 12.318 49.3985 12.9313C50.062 13.4935 50.3938 14.1834 50.3938 15.0011V32.4032C50.3938 33.272 50.062 33.9875 49.3985 34.5497C48.7861 35.1119 47.9695 35.393 46.9487 35.393C45.2644 35.393 44.2181 34.6519 43.8098 33.1698C42.1766 34.6519 40.1605 35.393 37.7617 35.393ZM38.2976 29.1834C39.9309 29.1834 41.2324 28.6468 42.2021 27.5735C43.1718 26.4492 43.6567 25.0693 43.6567 23.4338C43.6567 21.7473 43.1718 20.393 42.2021 19.3708C41.2324 18.3487 39.9309 17.8376 38.2976 17.8376C36.7154 17.8376 35.414 18.3487 34.3932 19.3708C33.4234 20.393 32.9386 21.7473 32.9386 23.4338C32.9386 25.0693 33.4234 26.4492 34.3932 27.5735C35.414 28.6468 36.7154 29.1834 38.2976 29.1834Z" fill="white"/>
<path d="M64.1066 35.393C60.636 35.393 57.7778 34.6774 55.5321 33.2464C55.0728 32.9398 54.741 32.5821 54.5369 32.1732C54.3327 31.7132 54.2307 31.2788 54.2307 30.87C54.2307 30.0011 54.5114 29.209 55.0728 28.4935C55.6853 27.778 56.4253 27.4202 57.293 27.4202C57.7013 27.4202 58.1096 27.5224 58.5179 27.7269C59.4366 28.1357 60.4829 28.4935 61.6568 28.8001C62.8307 29.0556 63.9025 29.1834 64.8722 29.1834C66.7606 29.1834 67.7049 28.749 67.7049 27.8802C67.7049 27.3691 67.4752 26.9347 67.0158 26.5769C66.5565 26.1681 65.4847 25.887 63.8004 25.7337C63.1369 25.6826 62.2693 25.5803 61.1974 25.427C60.1767 25.2737 59.1559 24.9926 58.1351 24.5838C57.1143 24.1238 56.2467 23.4594 55.5321 22.5906C54.8686 21.7217 54.5369 20.5463 54.5369 19.0642C54.5369 16.7643 55.4045 14.95 57.1399 13.6212C58.8752 12.2924 61.1974 11.628 64.1066 11.628C65.7909 11.628 67.3731 11.8069 68.8532 12.1647C70.3844 12.5224 71.5328 13.0591 72.2983 13.7746C73.0129 14.439 73.3702 15.2056 73.3702 16.0744C73.3702 16.841 73.0894 17.5309 72.528 18.1442C71.9666 18.7575 71.2521 19.0642 70.3844 19.0642C69.925 19.0642 69.4912 18.9619 69.0829 18.7575C68.4704 18.3487 67.6793 18.042 66.7096 17.8376C65.7909 17.6332 64.8467 17.5309 63.877 17.5309C61.9375 17.5309 60.9678 17.9398 60.9678 18.7575C60.9678 19.1153 61.1464 19.4475 61.5037 19.7541C61.912 20.0096 62.8052 20.2396 64.1832 20.4441C65.0508 20.5463 66.0461 20.6996 67.169 20.904C68.2918 21.0573 69.3636 21.364 70.3844 21.824C71.4562 22.2328 72.3494 22.9228 73.0639 23.8938C73.7785 24.8648 74.1357 26.1936 74.1357 27.8802C74.1357 30.18 73.217 32.0199 71.3796 33.3998C69.5423 34.7286 67.1179 35.393 64.1066 35.393Z" fill="white"/>
<path d="M81.7945 35.393C80.8248 35.393 80.0082 35.1119 79.3447 34.5497C78.6812 33.9875 78.3494 33.272 78.3494 32.4032V3.88529C78.3494 3.06757 78.6556 2.37762 79.2681 1.81544C79.9316 1.20215 80.7737 0.895508 81.7945 0.895508C82.7643 0.895508 83.5554 1.20215 84.1678 1.81544C84.7803 2.37762 85.0865 3.09312 85.0865 3.96195V17.1476C85.0865 17.7609 85.2652 18.0676 85.6224 18.0676C85.7245 18.0676 85.9287 17.9654 86.2349 17.7609L93.661 12.2413C94.2735 11.8325 94.937 11.628 95.6515 11.628C96.5192 11.628 97.2337 11.9347 97.7951 12.548C98.3566 13.1613 98.6373 13.8768 98.6373 14.6945C98.6373 15.8188 98.1269 16.7132 97.1061 17.3776L91.058 21.364C90.5477 21.7217 90.2925 22.105 90.2925 22.5139C90.2925 22.9228 90.4966 23.255 90.9049 23.5105L97.8717 29.7967C98.331 30.1545 98.6373 30.5633 98.7904 31.0233C98.9435 31.4832 99.0201 31.9177 99.0201 32.3265C99.0201 33.1442 98.6883 33.8597 98.0248 34.473C97.4124 35.0863 96.6723 35.393 95.8046 35.393C94.937 35.393 94.1714 35.0608 93.5079 34.3964L86.0052 27.0369C85.8521 26.8836 85.6735 26.8069 85.4693 26.8069C85.2141 26.8069 85.0865 27.0114 85.0865 27.4202V32.3265C85.0865 33.1953 84.7548 33.9364 84.0913 34.5497C83.4788 35.1119 82.7132 35.393 81.7945 35.393Z" fill="white"/>
<path d="M100.575 14.6944C100.575 13.6722 100.932 12.9056 101.647 12.3945C102.361 11.8835 103.178 11.6279 104.097 11.6279C104.811 11.6279 105.424 11.8324 105.934 12.2412C106.496 12.599 106.878 13.11 107.083 13.7744L111.829 25.3502C112.084 26.0146 112.442 26.3468 112.901 26.3468C113.36 26.3468 113.692 26.0146 113.896 25.3502L118.03 13.7744C118.286 13.0589 118.694 12.5223 119.255 12.1646C119.868 11.8068 120.506 11.6279 121.169 11.6279C122.037 11.6279 122.828 11.909 123.543 12.4712C124.308 13.0334 124.691 13.7744 124.691 14.6944C124.691 15.2054 124.589 15.691 124.385 16.1509L112.442 43.7489C112.084 44.5155 111.625 45.0521 111.064 45.3588C110.553 45.7165 110.017 45.8954 109.456 45.8954C108.537 45.8954 107.695 45.5632 106.929 44.8988C106.215 44.2855 105.858 43.5445 105.858 42.6756C105.858 42.2157 105.96 41.8068 106.164 41.4491L110.298 34.0896C109.43 33.8341 108.741 33.1952 108.231 32.1731L100.805 16.0743C100.652 15.6143 100.575 15.1543 100.575 14.6944Z" fill="#F5F876"/>
</svg>
