<svg width="25" height="25" viewBox="0 0 25 25" fill="none" xmlns="http://www.w3.org/2000/svg">
<path d="M5.3689 23.6455C4.9589 23.6455 4.6189 23.3055 4.6189 22.8955V2.89551C4.6189 2.48551 4.9589 2.14551 5.3689 2.14551C5.7789 2.14551 6.1189 2.48551 6.1189 2.89551V22.8955C6.1189 23.3055 5.7789 23.6455 5.3689 23.6455Z" fill="#5F33E1" fill-opacity="0.87"/>
<path d="M16.5689 17.6455H5.3689C4.9589 17.6455 4.6189 17.3055 4.6189 16.8955C4.6189 16.4855 4.9589 16.1455 5.3689 16.1455H16.5689C17.6589 16.1455 18.1689 15.8555 18.2689 15.6055C18.3689 15.3555 18.2189 14.7955 17.4389 14.0255L16.2389 12.8255C15.7489 12.3955 15.4489 11.7455 15.4189 11.0255C15.3889 10.2655 15.6889 9.51551 16.2389 8.96551L17.4389 7.76551C18.1789 7.02551 18.4089 6.42551 18.2989 6.16551C18.1889 5.90551 17.6189 5.64551 16.5689 5.64551H5.3689C4.9489 5.64551 4.6189 5.30551 4.6189 4.89551C4.6189 4.48551 4.9589 4.14551 5.3689 4.14551H16.5689C18.7589 4.14551 19.4589 5.05551 19.6889 5.59551C19.9089 6.13551 20.0589 7.27551 18.4989 8.83551L17.2989 10.0355C17.0489 10.2855 16.9089 10.6355 16.9189 10.9855C16.9289 11.2855 17.0489 11.5555 17.2589 11.7455L18.4989 12.9755C20.0289 14.5055 19.8789 15.6455 19.6589 16.1955C19.4289 16.7255 18.7189 17.6455 16.5689 17.6455Z" fill="#5F33E1" fill-opacity="0.87"/>
</svg>
