<svg width="25" height="25" viewBox="0 0 25 25" fill="none" xmlns="http://www.w3.org/2000/svg">
<path d="M15.7937 23.0729H15.6637C11.2237 23.0729 9.08373 21.3229 8.71373 17.4029C8.67373 16.9929 8.97373 16.6229 9.39373 16.5829C9.79373 16.5429 10.1737 16.8529 10.2137 17.2629C10.5037 20.4029 11.9837 21.5729 15.6737 21.5729H15.8037C19.8737 21.5729 21.3137 20.1329 21.3137 16.0629V9.5429C21.3137 5.4729 19.8737 4.0329 15.8037 4.0329H15.6737C11.9637 4.0329 10.4837 5.2229 10.2137 8.4229C10.1637 8.8329 9.81373 9.1429 9.39373 9.1029C8.97373 9.0729 8.67373 8.7029 8.70373 8.2929C9.04373 4.3129 11.1937 2.5329 15.6637 2.5329H15.7937C20.7037 2.5329 22.8037 4.6329 22.8037 9.5429V16.0629C22.8037 20.9729 20.7037 23.0729 15.7937 23.0729Z" fill="#FF4949"/>
<path d="M15.5538 13.5529H4.17383C3.76383 13.5529 3.42383 13.2129 3.42383 12.8029C3.42383 12.3929 3.76383 12.0529 4.17383 12.0529H15.5538C15.9638 12.0529 16.3038 12.3929 16.3038 12.8029C16.3038 13.2129 15.9638 13.5529 15.5538 13.5529Z" fill="#FF4949"/>
<path d="M6.40365 16.9029C6.21365 16.9029 6.02365 16.8329 5.87365 16.6829L2.52365 13.3329C2.23365 13.0429 2.23365 12.5629 2.52365 12.2729L5.87365 8.92288C6.16365 8.63288 6.64365 8.63288 6.93365 8.92288C7.22365 9.21288 7.22365 9.69288 6.93365 9.98288L4.11365 12.8029L6.93365 15.6229C7.22365 15.9129 7.22365 16.3929 6.93365 16.6829C6.79365 16.8329 6.59365 16.9029 6.40365 16.9029Z" fill="#FF4949"/>
</svg>
