<svg width="25" height="25" viewBox="0 0 25 25" fill="none" xmlns="http://www.w3.org/2000/svg">
<path d="M5.62894 22.6455C4.50894 22.6455 3.79894 22.2655 3.34894 21.8155C2.46894 20.9355 1.84894 19.0655 3.82894 15.0955L4.69894 13.3655C4.80894 13.1355 4.80894 12.6555 4.69894 12.4255L3.82894 10.6955C1.83894 6.72553 2.46894 4.84553 3.34894 3.97553C4.21894 3.09553 6.09894 2.46553 10.0589 4.45553L18.6189 8.73553C20.7489 9.79553 21.9189 11.2755 21.9189 12.8955C21.9189 14.5155 20.7489 15.9955 18.6289 17.0555L10.0689 21.3355C8.12894 22.3055 6.68894 22.6455 5.62894 22.6455ZM5.62894 4.64553C5.08894 4.64553 4.66894 4.77553 4.40894 5.03553C3.67894 5.75553 3.96894 7.62553 5.16894 10.0155L6.03894 11.7555C6.35894 12.4055 6.35894 13.3855 6.03894 14.0355L5.16894 15.7655C3.96894 18.1655 3.67894 20.0255 4.40894 20.7455C5.12894 21.4755 6.99894 21.1855 9.39894 19.9855L17.9589 15.7055C19.5289 14.9255 20.4189 13.8955 20.4189 12.8855C20.4189 11.8755 19.5189 10.8455 17.9489 10.0655L9.38894 5.79553C7.86894 5.03553 6.55894 4.64553 5.62894 4.64553Z" fill="#5F33E1"/>
<path d="M11.0589 13.6455H5.65894C5.24894 13.6455 4.90894 13.3055 4.90894 12.8955C4.90894 12.4855 5.24894 12.1455 5.65894 12.1455H11.0589C11.4689 12.1455 11.8089 12.4855 11.8089 12.8955C11.8089 13.3055 11.4689 13.6455 11.0589 13.6455Z" fill="#5F33E1"/>
</svg>
