<svg width="25" height="25" viewBox="0 0 25 25" fill="none" xmlns="http://www.w3.org/2000/svg">
<path d="M12.219 23.6455C6.97899 23.6455 2.71899 19.3855 2.71899 14.1455C2.71899 8.90551 6.97899 4.64551 12.219 4.64551C17.459 4.64551 21.719 8.90551 21.719 14.1455C21.719 19.3855 17.459 23.6455 12.219 23.6455ZM12.219 6.14551C7.80899 6.14551 4.21899 9.73551 4.21899 14.1455C4.21899 18.5555 7.80899 22.1455 12.219 22.1455C16.629 22.1455 20.219 18.5555 20.219 14.1455C20.219 9.73551 16.629 6.14551 12.219 6.14551Z" fill="#5F33E1"/>
<path d="M12.219 14.6455C11.809 14.6455 11.469 14.3055 11.469 13.8955V8.89551C11.469 8.48551 11.809 8.14551 12.219 8.14551C12.629 8.14551 12.969 8.48551 12.969 8.89551V13.8955C12.969 14.3055 12.629 14.6455 12.219 14.6455Z" fill="#5F33E1"/>
<path d="M15.219 3.64551H9.21899C8.80899 3.64551 8.46899 3.30551 8.46899 2.89551C8.46899 2.48551 8.80899 2.14551 9.21899 2.14551H15.219C15.629 2.14551 15.969 2.48551 15.969 2.89551C15.969 3.30551 15.629 3.64551 15.219 3.64551Z" fill="#5F33E1" fill-opacity="0.87"/>
</svg>
